<svg width="48" height="48" viewBox="0 0 48 48" fill="none" xmlns="http://www.w3.org/2000/svg">
<path d="M31.6689 0.00336752L31.8742 0.0219511L31.9133 0.027607L31.9523 0.0348788C32.7017 0.176961 33.6079 0.678991 34.6753 1.89324L46.1845 14.9866C46.777 15.6606 47.4826 16.6246 47.8117 17.7604C47.9832 18.3526 48.0658 19.0394 47.9374 19.7642C47.8067 20.5011 47.4772 21.1634 46.9828 21.726C45.3224 23.6148 42.909 26.0623 42.909 26.0623L31.7656 13.0828C31.7656 13.0828 27.428 17.6941 26.5922 18.5223C25.3998 19.7039 23.7958 20.421 22.4211 20.5948L22.4012 20.5972L22.3813 20.5988C21.7179 20.6617 20.4379 20.8601 19.066 20.2037L19.0738 20.1779C18.3895 19.8452 17.7129 19.3273 17.066 18.5579L17.0667 18.5571C16.6829 18.1062 16.5212 17.5486 16.4865 17.0623L16.4786 16.8554L16.4879 16.6244C16.5312 16.0879 16.7269 15.5728 17.0887 15.1611L29.4573 1.0901C29.8583 0.633977 30.2887 0.310773 30.7591 0.139108C31.1194 0.00768194 31.435 -0.00899912 31.6689 0.00336752Z" fill="url(#paint0_linear_108_127)"/>
<path d="M13.9433 1.03857C15.1402 1.03857 16.3986 1.77184 17.2887 2.29558L17.3193 2.33047L17.5955 2.47013C17.8717 2.60979 18.148 2.74947 18.3935 2.92405L18.7004 3.09859C19.9727 3.83594 21.5078 4.68015 22.9387 5.83157L15.9132 13.8241C15.1672 14.6728 14.8161 15.7696 14.8161 16.8554C14.8161 17.7567 15.067 18.9356 15.8814 19.8848C16.6784 20.8277 17.5376 21.4904 18.4296 21.9223L18.4214 21.9473C20.2332 22.8143 21.9366 22.5394 22.5195 22.4842L22.5622 22.4801L22.6048 22.4747C24.2879 22.2619 26.2159 21.403 27.6839 19.9484C27.9332 19.7013 28.193 19.4333 28.4633 19.1463L31.7245 15.4363L40.5833 25.5144C41.6575 26.7365 42.1792 28.2379 41.8109 29.9138C41.6575 30.8216 41.2585 31.2755 40.7674 31.8342C38.7418 33.3006 36.8696 31.2755 36.8696 31.2755L32.0204 25.7588C31.8977 25.5843 31.7135 25.5144 31.5294 25.5144C31.3452 25.5144 31.1611 25.6192 31.0383 25.7588C30.8849 25.8985 30.8235 26.108 30.8235 26.3175C30.8235 26.527 30.9156 26.7365 31.0383 26.8762L37.1152 33.7895C37.1207 33.7973 38.4018 35.6087 37.2993 37.281C37.2379 37.3509 37.1765 37.4556 37.1765 37.4556L36.0717 38.5729L35.7033 38.922C34.3836 39.6901 32.9719 37.9793 32.9719 37.9793L27.1405 31.3803C27.0178 31.2057 26.8336 31.1359 26.6494 31.1359C26.4653 31.1359 26.2812 31.2406 26.1584 31.3803C26.005 31.5199 25.9436 31.7294 25.9436 31.9389C25.9436 32.1484 26.0356 32.3579 26.1584 32.4976L31.6828 38.7824C31.6875 38.7888 33.062 40.7053 31.8977 42.2041C31.5601 42.5532 31.2532 42.8675 30.9462 43.1817C29.5064 44.2273 27.6689 42.3853 27.6623 42.3787L22.5675 36.5827C22.4448 36.4081 22.2606 36.3383 22.0765 36.3383C21.8923 36.3383 21.7082 36.443 21.5854 36.5827C21.432 36.7224 21.3706 36.9318 21.3706 37.1413C21.3706 37.3508 21.4626 37.5603 21.5854 37.7L26.6802 43.496C26.6857 43.5027 28.2127 45.3488 27.1098 46.6034L26.8336 46.9177C26.2505 47.616 25.3911 48.0001 24.4397 48.0001C24.2556 48.0001 24.0407 48.0001 23.8872 47.9652C22.721 47.7906 21.5854 47.1272 20.7261 46.1496L8.23475 31.8691C6.30121 29.7043 5.34976 27.9236 4.5211 26.3874L4.30626 25.9683C3.81521 25.0605 3.32412 24.1178 2.64891 23.1751C2.46477 22.8958 2.21924 22.5815 2.0044 22.3022C0.838133 20.731 0.132244 19.6486 0.0708611 18.8106C0.0708611 18.7408 0.0708754 18.6011 0.0401868 18.4266C-0.0518867 17.414 -0.143981 15.6682 1.69748 13.5733L11.6722 2.15593C12.3474 1.4227 13.0839 1.03858 13.9433 1.03857Z" fill="url(#paint1_linear_108_127)"/>
<defs>
<linearGradient id="paint0_linear_108_127" x1="32.2393" y1="0" x2="32.2393" y2="44.2502" gradientUnits="userSpaceOnUse">
<stop stop-color="#F4C811"/>
<stop offset="1" stop-color="#FF414D"/>
</linearGradient>
<linearGradient id="paint1_linear_108_127" x1="20.9642" y1="1.03857" x2="20.9642" y2="48.0001" gradientUnits="userSpaceOnUse">
<stop stop-color="#002D42"/>
<stop offset="1" stop-color="#0073A8"/>
</linearGradient>
</defs>
</svg>
