<svg width="48" height="48" viewBox="0 0 48 48" fill="none" xmlns="http://www.w3.org/2000/svg">
<path d="M15.1894 17.621C17.1358 17.621 18.7137 19.1989 18.7137 21.1452C18.7137 21.9902 18.4173 22.7637 17.9221 23.3708L17.8984 23.3996C17.4084 23.9869 17.8257 24.8809 18.592 24.8809H23.1189V27.9051C22.5084 27.6592 21.8419 27.5241 21.1454 27.5241C18.2258 27.5241 15.859 29.8909 15.859 32.8104C15.859 35.73 18.2258 38.0968 21.1454 38.0968C21.8419 38.0968 22.5084 37.9616 23.1189 37.7157V40.7399H7.25991V37.0814C7.25991 36.5086 6.9063 36.0942 6.52182 35.8978C6.14496 35.7053 5.6473 35.6684 5.20457 35.9092C4.70597 36.1803 4.13444 36.3347 3.52423 36.3347C1.57785 36.3347 1.22988e-06 34.7568 0 32.8104C-6.72193e-08 30.8641 1.57785 29.2862 3.52423 29.2862C4.13444 29.2862 4.70597 29.4406 5.20457 29.7117C5.6473 29.9524 6.14496 29.9156 6.52182 29.723C6.9063 29.5266 7.25991 29.1122 7.25991 28.5395V24.8809H10.9185C11.4912 24.8809 11.9056 24.5273 12.102 24.1428C12.2946 23.766 12.3314 23.2683 12.0907 22.8256C11.8196 22.327 11.6652 21.7554 11.6652 21.1452C11.6652 19.1989 13.243 17.621 15.1894 17.621Z" fill="#1AA4B6"/>
<path d="M40.7401 7.25977V10.9184C40.7401 11.4911 41.0937 11.9055 41.4782 12.1019C41.855 12.2944 42.3527 12.3313 42.7954 12.0905L42.8424 12.0655C43.3298 11.8099 43.8846 11.6651 44.4758 11.6651C46.4221 11.6651 48 13.2429 48 15.1893C48 17.1357 46.4221 18.7135 44.4758 18.7135C43.8846 18.7135 43.3298 18.5686 42.8424 18.3131L42.7954 18.288L42.7746 18.2769C42.3371 18.0485 41.8491 18.0871 41.4782 18.2767C41.0937 18.4731 40.7401 18.8875 40.7401 19.4602V23.1188H37.0815C36.5088 23.1188 36.0944 23.4724 35.898 23.8569C35.7054 24.2338 35.6686 24.7314 35.9093 25.1741C36.1804 25.6727 36.3348 26.2443 36.3348 26.8545C36.3348 28.8009 34.7569 30.3787 32.8106 30.3787C30.8642 30.3787 29.2863 28.8009 29.2863 26.8545C29.2863 25.9961 29.5921 25.2115 30.1016 24.6001C30.5916 24.0128 30.1743 23.1188 29.408 23.1188H24.8811V20.0946C25.4916 20.3404 26.1581 20.4756 26.8546 20.4756C29.7742 20.4756 32.141 18.1088 32.141 15.1893C32.141 12.2697 29.7742 9.90294 26.8546 9.90294C26.1581 9.90294 25.4916 10.0381 24.8811 10.2839V7.25977H40.7401Z" fill="url(#paint0_linear_108_132)"/>
<path d="M27.9052 24.8811C27.6594 25.4916 27.5242 26.1581 27.5242 26.8546C27.5242 29.7742 29.891 32.141 32.8105 32.141C35.7301 32.141 38.0969 29.7742 38.0969 26.8546C38.0969 26.1581 37.9617 25.4916 37.7159 24.8811H40.7401V40.7401H37.0815C36.5087 40.7401 36.0944 41.0937 35.8979 41.4782C35.7054 41.855 35.6685 42.3527 35.9093 42.7954C36.1804 43.294 36.3348 43.8656 36.3348 44.4758C36.3348 46.4221 34.7569 48 32.8105 48C30.8642 48 29.2863 46.4221 29.2863 44.4758C29.2863 43.8656 29.4407 43.294 29.7118 42.7954C29.9526 42.3527 29.9157 41.855 29.7232 41.4782C29.5267 41.0937 29.1124 40.7401 28.5396 40.7401H24.881V37.0815C24.881 36.5088 24.5274 36.0944 24.1429 35.898C23.772 35.7084 23.284 35.6698 22.8465 35.8982L22.8257 35.9093C22.3271 36.1804 21.7556 36.3348 21.1454 36.3348C19.199 36.3348 17.6211 34.7569 17.6211 32.8106C17.6211 30.8642 19.199 29.2863 21.1454 29.2863C22.0037 29.2863 22.7883 29.5921 23.3997 30.1016C23.9869 30.5915 24.8806 30.1746 24.881 29.4084V24.8811H27.9052Z" fill="url(#paint1_linear_108_132)"/>
<path d="M15.1894 0C17.1358 0 18.7136 1.57785 18.7136 3.52423C18.7136 4.11537 18.5687 4.67021 18.3132 5.15763L18.2881 5.20457C18.0474 5.64732 18.0843 6.14497 18.2768 6.52182C18.4732 6.90629 18.8876 7.25991 19.4603 7.25991H23.1189V10.9185C23.1189 11.4912 23.4725 11.9056 23.857 12.102C24.2339 12.2946 24.7315 12.3314 25.1743 12.0907C25.6729 11.8196 26.2444 11.6652 26.8546 11.6652C28.801 11.6652 30.3788 13.243 30.3788 15.1894C30.3788 17.1358 28.801 18.7137 26.8546 18.7137C25.9963 18.7137 25.2116 18.4079 24.6002 17.8984C24.013 17.4085 23.1193 17.8255 23.1189 18.5915V23.1189H20.0947C20.3406 22.5084 20.4757 21.8419 20.4757 21.1454C20.4757 18.2258 18.109 15.859 15.1894 15.859C12.2698 15.859 9.90306 18.2258 9.90306 21.1454C9.90306 21.8419 10.0382 22.5084 10.2841 23.1189H7.25989V7.25991H10.9185C11.4912 7.25991 11.9056 6.90629 12.102 6.52182C12.2915 6.15086 12.3302 5.66284 12.1017 5.22536L12.0907 5.20457C11.8195 4.70596 11.6652 4.13443 11.6652 3.52423C11.6652 1.57785 13.243 0 15.1894 0Z" fill="url(#paint2_linear_108_132)"/>
<defs>
<linearGradient id="paint0_linear_108_132" x1="24" y1="7.25977" x2="24" y2="40.7399" gradientUnits="userSpaceOnUse">
<stop stop-color="#F4C811"/>
<stop offset="1" stop-color="#FF414D"/>
</linearGradient>
<linearGradient id="paint1_linear_108_132" x1="29.1806" y1="48.8811" x2="29.1806" y2="24" gradientUnits="userSpaceOnUse">
<stop stop-color="#002E44"/>
<stop offset="1" stop-color="#0073AA"/>
</linearGradient>
<linearGradient id="paint2_linear_108_132" x1="29.1806" y1="48.8811" x2="29.1806" y2="24" gradientUnits="userSpaceOnUse">
<stop stop-color="#002E44"/>
<stop offset="1" stop-color="#0073AA"/>
</linearGradient>
</defs>
</svg>
