<svg width="48" height="48" viewBox="0 0 48 48" fill="none" xmlns="http://www.w3.org/2000/svg">
<path d="M40.8 24C40.8 33.2784 33.2784 40.8 24 40.8M40.8 24C40.8 14.7216 33.2784 7.2 24 7.2M40.8 24H7.2M24 40.8C14.7216 40.8 7.2 33.2784 7.2 24M24 40.8C28.2021 36.1996 30.5914 30.2294 30.7212 24C30.5914 17.7706 28.2021 11.8004 24 7.2M24 40.8C19.7978 36.1996 17.4109 30.2294 17.2812 24C17.4109 17.7706 19.7978 11.8004 24 7.2M7.2 24C7.2 14.7216 14.7216 7.2 24 7.2M11.4 40.8C11.4 43.1196 9.5196 45 7.2 45C4.8804 45 3 43.1196 3 40.8C3 38.4804 4.8804 36.6 7.2 36.6C9.5196 36.6 11.4 38.4804 11.4 40.8ZM45 40.8C45 43.1196 43.1196 45 40.8 45C38.4804 45 36.6 43.1196 36.6 40.8C36.6 38.4804 38.4804 36.6 40.8 36.6C43.1196 36.6 45 38.4804 45 40.8ZM11.4 7.2C11.4 9.5196 9.5196 11.4 7.2 11.4C4.8804 11.4 3 9.5196 3 7.2C3 4.8804 4.8804 3 7.2 3C9.5196 3 11.4 4.8804 11.4 7.2ZM45 7.2C45 9.5196 43.1196 11.4 40.8 11.4C38.4804 11.4 36.6 9.5196 36.6 7.2C36.6 4.8804 38.4804 3 40.8 3C43.1196 3 45 4.8804 45 7.2Z" stroke="url(#paint0_linear_108_114)" stroke-width="4" stroke-linecap="round" stroke-linejoin="round"/>
<defs>
<linearGradient id="paint0_linear_108_114" x1="24" y1="3" x2="24" y2="45" gradientUnits="userSpaceOnUse">
<stop stop-color="#002E44"/>
<stop offset="1" stop-color="#0073AA"/>
</linearGradient>
</defs>
</svg>
