<svg width="48" height="48" viewBox="0 0 48 48" fill="none" xmlns="http://www.w3.org/2000/svg">
<g clip-path="url(#clip0_108_110)">
<path d="M36 38V2C36 1.46957 35.7893 0.960859 35.4142 0.585786C35.0391 0.210714 34.5304 0 34 0C33.4696 0 32.9609 0.210714 32.5858 0.585786C32.2107 0.960859 32 1.46957 32 2C32 7.898 26.834 10 22 10H8C5.87827 10 3.84344 10.8429 2.34315 12.3431C0.842855 13.8434 0 15.8783 0 18L0 22C0 24.1217 0.842855 26.1566 2.34315 27.6569C3.84344 29.1571 5.87827 30 8 30H22C26.834 30 32 32.102 32 38C32 38.5304 32.2107 39.0391 32.5858 39.4142C32.9609 39.7893 33.4696 40 34 40C34.5304 40 35.0391 39.7893 35.4142 39.4142C35.7893 39.0391 36 38.5304 36 38Z" fill="url(#paint0_linear_108_110)"/>
<path d="M8.00002 34H16.372L19.6 41.056C19.9371 41.8054 20.0813 42.6272 20.0195 43.4466C19.9576 44.266 19.6917 45.0568 19.246 45.7471C18.8002 46.4374 18.1888 47.0052 17.4675 47.3987C16.7461 47.7922 15.9377 47.9989 15.116 48C14.0832 47.9999 13.0726 47.7004 12.2065 47.1378C11.3404 46.5752 10.6559 45.7736 10.236 44.83L5.23602 33.666C6.14128 33.8842 7.06885 33.9963 8.00002 34Z" fill="#1AA4B6"/>
<path d="M45.108 31.7901C45.3851 31.9282 45.6904 32.0001 46 32.0001C46.4511 32.001 46.8892 31.8493 47.2432 31.5698C47.5973 31.2903 47.8464 30.8992 47.9502 30.4603C48.054 30.0213 48.0063 29.5601 47.8149 29.1516C47.6236 28.7431 47.2997 28.4113 46.896 28.2101L42.896 26.2101C42.4212 25.973 41.8718 25.9342 41.3684 26.1022C40.8651 26.2703 40.4491 26.6314 40.212 27.1061C39.9749 27.5809 39.9361 28.1303 40.1041 28.6337C40.2721 29.137 40.6332 29.553 41.108 29.7901L45.108 31.7901Z" fill="#F4C811"/>
<path d="M46.894 11.8001L42.894 13.8001C42.4192 14.0372 41.8698 14.076 41.3664 13.908C40.8631 13.74 40.4471 13.3789 40.21 12.9041C39.9729 12.4294 39.9341 11.8799 40.1021 11.3765C40.2701 10.8732 40.6312 10.4572 41.106 10.2201L45.106 8.22011C45.5807 7.98301 46.1302 7.94421 46.6335 8.11224C47.1369 8.28027 47.5529 8.64138 47.79 9.11611C48.0271 9.59085 48.0659 10.1403 47.8979 10.6437C47.7298 11.147 47.3687 11.563 46.894 11.8001Z" fill="#F4C811"/>
<path d="M47.4142 18.5859C47.7893 18.961 48 19.4697 48 20.0001C48 20.5305 47.7893 21.0393 47.4142 21.4143C47.0391 21.7894 46.5304 22.0001 46 22.0001H42C41.4695 22.0001 40.9608 21.7894 40.5858 21.4143C40.2107 21.0393 40 20.5305 40 20.0001C40 19.4697 40.2107 18.961 40.5858 18.5859C40.9608 18.2108 41.4695 18.0001 42 18.0001H46C46.5304 18.0001 47.0391 18.2108 47.4142 18.5859Z" fill="#F4C811"/>
</g>
<defs>
<linearGradient id="paint0_linear_108_110" x1="24.0019" y1="0" x2="24.0019" y2="48" gradientUnits="userSpaceOnUse">
<stop stop-color="#002E44"/>
<stop offset="1" stop-color="#0073AA"/>
</linearGradient>
<clipPath id="clip0_108_110">
<rect width="48" height="48" fill="white"/>
</clipPath>
</defs>
</svg>
