<svg width="48" height="50" viewBox="0 0 48 50" fill="none" xmlns="http://www.w3.org/2000/svg">
<path d="M17.7595 22.7588C19.4896 22.7588 21.1705 22.9825 22.778 23.4024C22.3351 24.1595 22.0795 25.0487 22.0795 26C22.0795 27.8808 23.0775 29.5175 24.5508 30.3711L24.5883 30.6504C24.5893 30.6584 24.5901 30.6668 24.5911 30.6748L25.2867 36H3.79159C2.19104 36 1.39072 35.9999 0.813129 35.5293C0.366844 35.1656 0.0106843 34.4221 0.00031142 33.8331C-0.0129501 33.0709 0.397402 32.5069 1.21813 31.3789C5.03223 26.1369 11.0229 22.7589 17.7595 22.7588Z" fill="url(#paint0_linear_108_116)"/>
<path d="M17.7595 0C23.0409 0 27.3228 4.44608 27.323 9.93068C27.323 15.4154 23.041 19.8623 17.7595 19.8623C12.4781 19.8622 8.19693 15.4153 8.19693 9.93068C8.19712 4.44619 12.4783 0.000174565 17.7595 0Z" fill="url(#paint1_linear_108_116)"/>
<path d="M28.0825 25.4735C28.2131 25.4835 28.3948 25.5089 28.5896 25.5978C28.8141 25.7004 29.0089 25.8575 29.1561 26.0543L29.2164 26.1404L29.291 26.2743C29.3556 26.4062 29.3902 26.5295 29.4115 26.6255C29.4373 26.7414 29.455 26.875 29.4699 26.9795L29.8134 29.384H45.0931C45.238 29.384 45.4101 29.3836 45.5582 29.3965C45.6953 29.4084 45.893 29.4362 46.0997 29.5362L46.1887 29.584L46.2978 29.6548C46.5447 29.8297 46.7331 30.0775 46.8346 30.3648C46.9261 30.6243 46.9165 30.8619 46.9006 31.0183C46.8856 31.1661 46.8531 31.3353 46.826 31.4776L45.5285 38.2864C45.4448 38.7256 45.3724 39.1076 45.2883 39.4203C45.201 39.7448 45.0853 40.0616 44.8807 40.359C44.5714 40.8081 44.1426 41.163 43.6435 41.3828C43.3132 41.5281 42.9806 41.5826 42.6455 41.6076C42.3226 41.6317 41.9331 41.6315 41.4859 41.6315H33.1011C32.6311 41.6315 32.2233 41.6326 31.8859 41.6067C31.5364 41.5798 31.1896 41.5197 30.8478 41.3627C30.333 41.1262 29.8971 40.7463 29.5933 40.2681C29.3917 39.9505 29.2863 39.6147 29.2125 39.272C29.1414 38.9412 29.0874 38.5369 29.024 38.0712L27.9926 30.4959L27.5543 27.4244H26.4444C25.9033 27.4244 25.4646 26.9858 25.4646 26.4446C25.4646 25.9035 25.9033 25.4648 26.4444 25.4648H27.7246C27.8302 25.4648 27.9643 25.4644 28.0825 25.4735Z" fill="#F4C811"/>
<path d="M32.3231 49.4446C33.4054 49.4446 34.2827 48.5672 34.2827 47.485C34.2827 46.4027 33.4054 45.5254 32.3231 45.5254C31.2409 45.5254 30.3635 46.4027 30.3635 47.485C30.3635 48.5672 31.2409 49.4446 32.3231 49.4446Z" fill="#1AA4B6"/>
<path d="M42.1211 49.4446C43.2034 49.4446 44.0807 48.5672 44.0807 47.485C44.0807 46.4027 43.2034 45.5254 42.1211 45.5254C41.0389 45.5254 40.1615 46.4027 40.1615 47.485C40.1615 48.5672 41.0389 49.4446 42.1211 49.4446Z" fill="#1AA4B6"/>
<defs>
<linearGradient id="paint0_linear_108_116" x1="17.7595" y1="0" x2="17.7595" y2="36" gradientUnits="userSpaceOnUse">
<stop stop-color="#002D42"/>
<stop offset="1" stop-color="#0073A8"/>
</linearGradient>
<linearGradient id="paint1_linear_108_116" x1="17.7595" y1="0" x2="17.7595" y2="36" gradientUnits="userSpaceOnUse">
<stop stop-color="#002D42"/>
<stop offset="1" stop-color="#0073A8"/>
</linearGradient>
</defs>
</svg>
